<svg id="Layer_1" data-name="Layer 1" xmlns="http://www.w3.org/2000/svg" xmlns:xlink="http://www.w3.org/1999/xlink" viewBox="0 0 508.13 508.13"><defs><style>.cls-1{fill:none;}.cls-2{clip-path:url(#clip-path);}.cls-3{clip-path:url(#clip-path-2);}.cls-4{fill:#4c4745;}.cls-5{fill:#e0e0e2;}.cls-6{fill:#803422;}.cls-7{fill:#bc553e;}</style><clipPath id="clip-path"><rect class="cls-1" width="508.13" height="508.13"/></clipPath><clipPath id="clip-path-2"><rect class="cls-1" x="-18.27" width="595.28" height="508.13"/></clipPath></defs><g class="cls-2"><g class="cls-3"><path class="cls-4" d="M303.43,508.13H-143.09V0h762.2V111.15c-7-1.65-14-3.26-20.9-5-8.27-2-16.49-4.3-24.78-6.24-5.85-1.38-11.82-2.28-17.7-3.58-17.81-3.91-35.58-8-53.4-11.85-7.93-1.72-15.94-3.1-23.91-4.64.44-.66.82-1.37,1.32-2,.76-.93,1.6-1.8,2.41-2.69L478,71.67l-1.41-.59c-.12-1-.58-2.18-.3-3.1.95-3.13-.75-3.68-3.24-3.79-3.79-.15-7.57-.42-11.36-.57-2.36-.09-4.88-.29-4.83,3.29,0,.3-.48.63-.77.93l-4.69,4.8-1.12.28-1,.65-.43.4c-1.57,1.76.07,2.11,1.17,2.38,2.63.66,5.3,1.14,7.95,1.69l-13,6.27c6.16,1.74,12.3,2.75,18.4,3.94,10.46,2,20.94,4,31.33,6.32,21.59,4.86,43.12,9.94,64.66,15,14.37,3.35,28.7,6.82,43.07,10.16,5.52,1.29,11.1,2.35,16.66,3.51v75.59c-2.21-.62-4.42-1.2-6.61-1.84-8.59-2.5-17.16-5.06-25.76-7.52-5.17-1.48-10.35-2.91-15.56-4.19-2.79-.68-5.1.66-6.86,2.68-2.46,2.82-4.74,5.78-7.06,8.72-4.06,5.17-8.21,10.28-12.07,15.6-1.23,1.69-1.65,4-2.45,6l.67-.13-.11-.46c-3,.67-5.54,1.75-6,5.28,0,.22.08.54,0,.64a40.64,40.64,0,0,0-3.36,2.9c-2.49,2.77-4.93,5.6-7.25,8.51a30.67,30.67,0,0,0-2.33,4.07s-.11-.08-.12-.06c-1.37,1.11-2.82,2.13-4.07,3.36a50.1,50.1,0,0,0-3.61,4.08c-5.33,6.46-10.7,12.89-15.94,19.43-3.32,4.13-6.34,8.5-9.69,12.6-1.94,2.37-4.4,4.31-6.38,6.65s-3.16,5.51-5.5,7.21c-3.38,2.46-4.33,6.5-7.51,9.17-3.95,3.33-6.65,8.14-9.89,12.3-1.32,1.68-2.72,3.3-4,5s-2.07,4.34-3.76,5.22c-3.33,1.71-4.54,5-6.78,7.43s-3.74,5.15-5.73,7.63c-2.21,2.73-4.72,5.23-6.87,8a40.09,40.09,0,0,0-3,5.23c-1.2.87-3,1.48-3.5,2.65-1.68,3.73-4.84,6.22-7.22,9.35-1.14,1.51-1.19,3.06.37,3.93-.61-2-1.45-2.23-2.68-.79-.8.94-1.42,2-2.15,3-1.48,2-3.57,3.86-4.32,6.13-.82,2.49-.33,5.43-4.37,4.82-.18,0-.43,1.14-.75,1.21-4,.78-3.73,6.05-7.46,7.12-.26.08-.39.64-.59,1a21.76,21.76,0,0,1-2.22,3.56c-2.47,2.65-5.28,5-7.64,7.73-3.64,4.25-7.08,8.67-10.44,13.14-.76,1-.83,2.52-1.34,4.2.31-.16.14,0-.06,0-2.05.38-3.33,1.43-3.24,3.69l.12-.2a5.76,5.76,0,0,0-3.59,1.62c-3.18,3.63-4.93,8.47-9.34,11.1-.26.15-.23.73-.42,1.06-1.17,1.91-1.93,4.72-3.63,5.54-4.83,2.3-6.82,6.48-9.13,10.76-1.15,2.13-3.37,3.71-5.18,5.46-1.08,1.06-2.33,1.95-3.46,3s-2.66,2-3.47,3.37c-1.28,2.14-2.09,4.56-3.16,6.84a6.69,6.69,0,0,1-1.25,1.92c-2.21,2.19-4.58,4.23-6.68,6.52a47,47,0,0,0-3.25,4.65c-2.76,3.84-5.5,7.7-8.36,11.47-1,1.33-2.43,2.34-3.46,3.66C307.48,502.52,305.48,505.35,303.43,508.13Zm97.43-388.8c-.11.12-.23.23-.35.34-2.85,1-1.78,2.67-.44,4a6.64,6.64,0,0,0,3.2,1.25q12.44,2.43,24.89,4.72c2.49.45,5,.84,7.5,1.12,1.74.2,2.9-.51,2.8-2.49,4.17-6.59,4.17-6.59-2.45-10.39l-.27-.16c-.28-1.54-1.07-3.19-.76-4.58.67-2.95-.88-3-3-3.28-5.39-.81-10.77-1.77-16.08-3-3.66-.83-4.32-.77-4.89,2.92a4,4,0,0,1-3.16,3.72,9.87,9.87,0,0,0-2.08,1.19l-.9,1.12-2.24,2.37-1.4.87A.3.3,0,0,0,400.86,119.33ZM110.33,453.4l1.54,1.34c1.25-3.11,4.47-1.92,6.63-3a3,3,0,0,0,1-.76c1.25-1.65,2.16-3.75,3.76-4.91,2.55-1.84,4.32-4.55,7.45-5.86a17.93,17.93,0,0,0,6.09-5c1.49-1.72,5-4.62,7.23-5.1a5.31,5.31,0,0,0,1.87-1c3.72-2.67,7.47-5.31,11.12-8.07,2.12-1.61,4-3.46,6.1-5.15a46.56,46.56,0,0,0,4.29-3.31c1.56-1.61,3.57-2.28,5.35-3.36,3.17-1.92,5.16-6.38,8.4-7.43,4-1.28,5.42-4.4,8.13-6.52,4-3.13,8.36-5.79,12.55-8.67,3.08-2.12,6.22-4.18,9.18-6.46,2.08-1.6,3.87-3.58,5.87-5.3,1.75-1.5,3.61-2.87,5.43-4.29.37-.29.78-.83,1.12-.79,5,.6,6.36-4.5,9.89-6.36,4.29-2.27,7.59-6.36,11.47-9.47,5.85-4.69,11.83-9.21,17.76-13.81,5.08-3.94,10.12-7.95,15.26-11.82,5.51-4.15,11.14-8.12,16.64-12.27,2.69-2,5.53-3.95,7.15-7.1a4.43,4.43,0,0,1,1.57-1.53c2.63-1.7,5.44-3.15,7.92-5,5.11-3.86,10.07-7.92,15.06-11.94,2.89-2.32,5.64-4.84,8.62-7.05,5.17-3.84,10.5-7.43,15.68-11.25,4.05-3,8-6.08,11.92-9.23,6.13-4.91,12.21-9.89,19.32-13.38a7,7,0,0,0,1.19-1c2.46-2.07,4.92-4.13,7.37-6.21,1.22-1,2.36-2.16,3.63-3.12,4.88-3.7,9.82-7.3,14.68-11,6.27-4.79,12.46-9.67,18.75-14.44,4.78-3.64,9.74-7.05,14.47-10.76,5.36-4.2,10.48-8.7,15.84-12.9,3.45-2.71,7.24-5,10.68-7.7s6.75-5.64,9.92-8.68,8.56-4.41,9.75-10a12.27,12.27,0,0,0-2.07-1.08c-3.1-1-6.21-1.95-9.34-2.84-17.23-4.89-34.44-9.85-51.72-14.54-2.94-.8-6.5-1.26-9.24-.32-3.84,1.32-7.14,4.18-10.74,6.26-12.52,7.22-25,14.48-37.63,21.57-13.14,7.39-26.42,14.54-39.56,21.92-3.83,2.15-7.37,4.81-11.12,7.12-3.55,2.19-7.13,4.33-10.8,6.31-4.65,2.5-9.45,4.72-14.09,7.23-9.5,5.14-19.31,9.82-28.26,15.8-5.43,3.63-11.77,5.43-16.84,9.87-4,3.49-9.3,5.46-14.08,8-4.59,2.46-9.34,4.63-13.83,7.25-5,2.9-9.65,6.39-14.67,9.23-6.78,3.84-13.77,7.29-20.62,11-.6.32-.81,1.37-1.24,2.15-2.27-.51-15.75,7.65-15.77,9.53-1,.09-2.19-.11-3,.32-4.66,2.39-9.28,4.85-13.83,7.43-6.62,3.76-13.14,7.7-19.77,11.43-4.29,2.41-9.14,4-13,7-6.07,4.71-13.49,7-19.47,11.88-1.83,1.49-4.7,2-7,3.6-3.88,2.76-8.35,4.68-12.51,7.06-2.65,1.51-5.2,3.21-7.78,4.83s-5.28,3.2-7.78,5c-1.16.82-1.82,2.36-3,3.09-2,1.21-4.18,2-6.26,3-1.48.72-2.87,1.64-4.38,2.3s-3.29,1-4.77,1.74c-6.31,3.36-12.55,6.85-18.83,10.27-3.79,2.06-7.64,4-11.41,6.1-3.94,2.18-7.76,4.56-11.72,6.69-2,1.1-4.78,1.32-6.32,2.83a47.8,47.8,0,0,1-12.38,8.42c-.49,1.21-.55,2-.91,2.16a32.47,32.47,0,0,1-5.87,2.26A12.78,12.78,0,0,0-30.29,399a48.8,48.8,0,0,1-7.45,5.73,25.28,25.28,0,0,1-4.12,1.75l-.7-.4c-1.78,2.84-2.49,5.28,1,7.39,4.7,2.82,9.8,4.8,14,8.77,3.77,3.58,8.91,5.69,13.38,8.56,3,1.93,5.83,4.14,8.84,6.05,3.67,2.34,7.51,4.41,11.18,6.76,4.59,2.94,8.85,6.5,13.68,9,6.71,3.46,12.74,7.9,19.08,11.88,5.14,3.23,10.37,6.32,15.64,9.34,3.16,1.81,7,2.81,9.57,5.18s4.59,1.36,6.78.55c3.94-1.45,7.73-3.29,11.64-4.85,1.4-.56,3-.64,4.39-1.21a4.26,4.26,0,0,0,2.2-1.94C89,471,88.29,470,88,469.2l-1,.4c.24.65.3,1.56.76,1.87a2.15,2.15,0,0,0,2-.09c2.12-1.47,4.11-3.12,6.17-4.68,3.18-2.4,6.29-4.92,9.61-7.11,2.37-1.56,4.29-3.27,4.9-6.14ZM436.12,88.86h0a41.33,41.33,0,0,0-.1-6,3.17,3.17,0,0,0-2-2.12,81.19,81.19,0,0,0-9.93-1.49,3.53,3.53,0,0,0-2.91,1.4c-1.46,3.46-2.61,7.06-3.77,10.64-.77,2.38.21,3.86,2.65,4.39,3.06.66,6.1,1.43,9.18,1.94,5.94,1,6.83.17,6.86-5.92ZM476.07,41a30.16,30.16,0,0,1-4.21.78,24.17,24.17,0,0,1-3.77-.42c-3.54-.47-4.28.09-5.07,3.68a18.88,18.88,0,0,1-1.28,4.53c-1.5,2.95-.86,4.55,2.4,4.93,1.89.22,3.81,0,5.7.25,6.67.72,6.62.76,6.26-5.8C476,46.37,476.07,43.79,476.07,41Zm-39.3,19.56H437c0-2.1.39-4.31-.14-6.27A5.48,5.48,0,0,0,433.68,51c-.88-.3-2.9.79-3.42,1.78a40.7,40.7,0,0,0-2.86,7.66c-2,6.82-1.93,6.84,5.12,7.9,3.67.55,4.2.1,4.24-3.7C436.78,63.3,436.77,61.93,436.77,60.55Zm38.42-28.13a7.83,7.83,0,0,0,.3-1.41c0-2.43.11-4.87.05-7.3-.08-3-2.37-4.55-4.86-3-1,.62-1.55,2.37-1.9,3.71C466.75,32.27,466.79,32.28,475.19,32.42Zm-99,220-.64.6c.24.16.47.44.72.45s.44-.27.66-.43Z"/><path class="cls-5" d="M303.43,508.13c2.05-2.78,4.05-5.61,6.19-8.33,1-1.32,2.45-2.33,3.46-3.66,2.86-3.77,5.6-7.63,8.36-11.47a47,47,0,0,1,3.25-4.65c2.1-2.29,4.47-4.33,6.68-6.52a6.69,6.69,0,0,0,1.25-1.92c1.07-2.28,1.88-4.7,3.16-6.84.81-1.34,2.27-2.29,3.47-3.37s2.38-1.9,3.46-3c1.81-1.75,4-3.33,5.18-5.46,2.31-4.28,4.3-8.46,9.13-10.76,1.7-.82,2.46-3.63,3.63-5.54.19-.33.16-.91.42-1.06,4.41-2.63,6.16-7.47,9.34-11.1a5.76,5.76,0,0,1,3.59-1.62l-.12.2c-.09-2.26,1.19-3.31,3.24-3.69.2,0,.37-.18.06,0,.51-1.68.58-3.19,1.34-4.2,3.36-4.47,6.8-8.89,10.44-13.14,2.36-2.74,5.17-5.08,7.64-7.73a21.76,21.76,0,0,0,2.22-3.56c.2-.33.33-.89.59-1,3.73-1.07,3.44-6.34,7.46-7.12.32-.07.57-1.24.75-1.21,4,.61,3.55-2.33,4.37-4.82.75-2.27,2.84-4.1,4.32-6.13.73-1,1.35-2.1,2.15-3,1.23-1.44,2.07-1.16,2.68.79-1.56-.87-1.51-2.42-.37-3.93,2.38-3.13,5.54-5.62,7.22-9.35.53-1.17,2.3-1.78,3.5-2.65a40.09,40.09,0,0,1,3-5.23c2.15-2.77,4.66-5.27,6.87-8,2-2.48,3.61-5.28,5.73-7.63s3.45-5.72,6.78-7.43c1.69-.88,2.47-3.48,3.76-5.22s2.67-3.34,4-5c3.24-4.16,5.94-9,9.89-12.3,3.18-2.67,4.13-6.71,7.51-9.17,2.34-1.7,3.54-4.89,5.5-7.21s4.44-4.28,6.38-6.65c3.35-4.1,6.37-8.47,9.69-12.6,5.24-6.54,10.61-13,15.94-19.43a50.1,50.1,0,0,1,3.61-4.08c1.25-1.23,2.7-2.25,4.07-3.36,0,0,.12.06.12.06a30.67,30.67,0,0,1,2.33-4.07c2.32-2.91,4.76-5.74,7.25-8.51a40.64,40.64,0,0,1,3.36-2.9c.12-.1,0-.42,0-.64.47-3.53,3-4.61,6-5.28l.11.46-.67.13c.8-2,1.22-4.27,2.45-6,3.86-5.32,8-10.43,12.07-15.6,2.32-2.94,4.6-5.9,7.06-8.72,1.76-2,4.07-3.36,6.86-2.68,5.21,1.28,10.39,2.71,15.56,4.19,8.6,2.46,17.17,5,25.76,7.52,2.19.64,4.4,1.22,6.61,1.84v86.38q-2.15,4.72-4.28,9.44c-.89,2-1.68,4-2.7,5.87q-3.39,6.28-7,12.43c-1.24,2.1-2.72,4.05-3.79,5.63-.72,1.61-1.25,2.82-2,4.5,1.66,3.28-4.85,6.46-1.87,10.1l-3.16,5.24-1.2-.2c-.55,2.6,1.43,5.6-2.36,7.14-1.18.48-1.71,2.73-2.38,4.23s-3.34,2-1.82,4.36c-2,.78-.27,2.05-.48,3-.26,1.25-1.28,2.33-1.85,3.54-1,2-1.49,4.42-2.9,6-.92,1.06-3.1,1-4.72,1.5.38,1.64,4.3,1.06,2.51,4-.85,1.38-1.76,2.72-2.74,4.22l1,1.31-5,1.42.41,3.41.54-.17,0,.76c-.9,1-2.72,2.22-2.53,2.88.95,3.25-.74,4.9-3.06,6.4,1.21,4.69-1.06,11.19-4.28,13.71a12.28,12.28,0,0,1-1.3,4.31c-.59,1.11-2.26,2.24-2.08,3.06.7,3.24-1.18,5.17-2.85,7.37a7.3,7.3,0,0,0-.92,2.72c-.6,2.5-.76,5.18-1.78,7.48-1.53,3.47-3.65,6.67-5.51,10a1.51,1.51,0,0,0-.25.89c.68,4-1.44,6.64-3.81,8.94,0,1.43.56,3.37-.09,3.95-3.49,3.12-3.31,9-8.34,10.87a2.59,2.59,0,0,0-.37.5l-5.49,3.17c.89,1,1.63,1.74,2.26,2.55,1.8,2.3,1.73,6.36-.28,8.19-3.24,3-4.28,7.18-6.37,10.8-1.23,2.14-2.36,4.33-3.79,7,1.17,1.67.06,3.58-1.94,5a7,7,0,0,0-3.1,5.39Z"/><path class="cls-5" d="M478.42,79.86c8,1.54,16,2.92,23.91,4.64,17.82,3.87,35.59,7.94,53.4,11.85,5.88,1.3,11.85,2.2,17.7,3.58,8.29,1.94,16.51,4.2,24.78,6.24,6.95,1.72,13.93,3.33,20.9,5v12.07c-5.56-1.16-11.14-2.22-16.66-3.51-14.37-3.34-28.7-6.81-43.07-10.16-21.54-5-43.07-10.12-64.66-15-10.39-2.35-20.87-4.28-31.33-6.32-6.1-1.19-12.24-2.2-18.4-3.94L458,78c2.3,0,4.62-.1,6.9.13C469.43,78.63,473.92,79.29,478.42,79.86Z"/><path class="cls-5" d="M110.34,453.45c-.61,2.87-2.53,4.58-4.9,6.14-3.32,2.19-6.43,4.71-9.61,7.11-2.06,1.56-4,3.21-6.17,4.68a2.15,2.15,0,0,1-2,.09c-.46-.31-.52-1.22-.76-1.87l1-.4c.32.81,1.07,1.8.84,2.38a4.26,4.26,0,0,1-2.2,1.94c-1.39.57-3,.65-4.39,1.21-3.91,1.56-7.7,3.4-11.64,4.85-2.19.81-4.23,1.77-6.78-.55s-6.41-3.37-9.57-5.18c-5.27-3-10.5-6.11-15.64-9.34-6.34-4-12.37-8.42-19.08-11.88-4.83-2.48-9.09-6-13.68-9-3.67-2.35-7.51-4.42-11.18-6.76-3-1.91-5.84-4.12-8.84-6.05-4.47-2.87-9.61-5-13.38-8.56-4.18-4-9.28-5.95-14-8.77-3.5-2.11-2.79-4.55-1-7.39l.7.4a25.28,25.28,0,0,0,4.12-1.75A48.8,48.8,0,0,0-30.29,399a12.78,12.78,0,0,1,6.69-3.49,32.47,32.47,0,0,0,5.87-2.26c.36-.16.42-1,.91-2.16a47.8,47.8,0,0,0,12.38-8.42c1.54-1.51,4.28-1.73,6.32-2.83,4-2.13,7.78-4.51,11.72-6.69,3.77-2.09,7.62-4,11.41-6.1,6.28-3.42,12.52-6.91,18.83-10.27,1.48-.78,3.22-1.06,4.77-1.74s2.9-1.58,4.38-2.3c2.08-1,4.3-1.81,6.26-3,1.18-.73,1.84-2.27,3-3.09,2.5-1.79,5.17-3.34,7.78-5s5.13-3.32,7.78-4.83c4.16-2.38,8.63-4.3,12.51-7.06,2.27-1.61,5.14-2.11,7-3.6,6-4.87,13.4-7.17,19.47-11.88,3.83-3,8.68-4.56,13-7,6.63-3.73,13.15-7.67,19.77-11.43,4.55-2.58,9.17-5,13.83-7.43.83-.43,2-.23,3-.32,0-1.88,13.5-10,15.77-9.53.43-.78.64-1.83,1.24-2.15,6.85-3.71,13.84-7.16,20.62-11,5-2.84,9.68-6.33,14.67-9.23,4.49-2.62,9.24-4.79,13.83-7.25,4.78-2.56,10.1-4.53,14.08-8,5.07-4.44,11.41-6.24,16.84-9.87,9-6,18.76-10.66,28.26-15.8,4.64-2.51,9.44-4.73,14.09-7.23,3.67-2,7.25-4.12,10.8-6.31,3.75-2.31,7.29-5,11.12-7.12,13.14-7.38,26.42-14.53,39.56-21.92,12.6-7.09,25.11-14.35,37.63-21.57,3.6-2.08,6.9-4.94,10.74-6.26,2.74-.94,6.3-.48,9.24.32,17.28,4.69,34.49,9.65,51.72,14.54,3.13.89,6.24,1.85,9.34,2.84a12.27,12.27,0,0,1,2.07,1.08c-1.19,5.56-6.44,6.81-9.75,10s-6.47,6-9.92,8.68-7.23,5-10.68,7.7c-5.36,4.2-10.48,8.7-15.84,12.9-4.73,3.71-9.69,7.12-14.47,10.76-6.29,4.77-12.48,9.65-18.75,14.44-4.86,3.71-9.8,7.31-14.68,11-1.27,1-2.41,2.09-3.63,3.12-2.45,2.08-4.91,4.14-7.37,6.21a7,7,0,0,1-1.19,1c-7.11,3.49-13.19,8.47-19.32,13.38-3.92,3.15-7.87,6.25-11.92,9.23-5.18,3.82-10.51,7.41-15.68,11.25-3,2.21-5.73,4.73-8.62,7.05-5,4-9.95,8.08-15.06,11.94-2.48,1.89-5.29,3.34-7.92,5a4.43,4.43,0,0,0-1.57,1.53c-1.62,3.15-4.46,5.07-7.15,7.1-5.5,4.15-11.13,8.12-16.64,12.27-5.14,3.87-10.18,7.88-15.26,11.82-5.93,4.6-11.91,9.12-17.76,13.81-3.88,3.11-7.18,7.2-11.47,9.47-3.53,1.86-4.91,7-9.89,6.36-.34,0-.75.5-1.12.79-1.82,1.42-3.68,2.79-5.43,4.29-2,1.72-3.79,3.7-5.87,5.3-3,2.28-6.1,4.34-9.18,6.46-4.19,2.88-8.56,5.54-12.55,8.67-2.71,2.12-4.17,5.24-8.13,6.52-3.24,1.05-5.23,5.51-8.4,7.43-1.78,1.08-3.79,1.75-5.35,3.36a46.56,46.56,0,0,1-4.29,3.31c-2.06,1.69-4,3.54-6.1,5.15-3.65,2.76-7.4,5.4-11.12,8.07a5.31,5.31,0,0,1-1.87,1c-2.27.48-5.74,3.38-7.23,5.1a17.93,17.93,0,0,1-6.09,5c-3.13,1.31-4.9,4-7.45,5.86-1.6,1.16-2.51,3.26-3.76,4.91a3,3,0,0,1-1,.76c-2.16,1.12-5.38-.07-6.63,3l-1.54-1.34-.06-.08Z"/><path class="cls-6" d="M478.42,79.86c-4.5-.57-9-1.23-13.5-1.69-2.28-.23-4.6-.1-6.9-.13-2.64-.55-5.31-1-7.94-1.69-1.1-.27-2.74-.62-1.17-2.38,2.41.57,4.8,1.28,7.24,1.68,5.3.87,10.62,1.7,16,2.28,2,.21,4-.32,6-.51-6.41-1-12.71-1.2-18.93-2-2.67-.32-5.2-1.84-7.79-2.82l4.69-4.8c.29-.3.77-.63.77-.93-.05-3.58,2.47-3.38,4.83-3.29,3.79.15,7.57.42,11.36.57,2.49.11,4.19.66,3.24,3.79-.28.92.18,2.06.3,3.1a24.85,24.85,0,0,1-4.76,1.22c-2.84.19-5.71,0-8.57,0a9.62,9.62,0,0,0-2.22.58c.35.6.41.88.56.94,5.16,2.26,10.39.83,15.58.18.36,0,.55-1.53.82-2.35l4.14,3.51c-.81.89-1.65,1.76-2.41,2.69C479.24,78.49,478.86,79.2,478.42,79.86Z"/><path class="cls-6" d="M436.12,88.86V91.7c0,6.09-.92,6.91-6.86,5.92-3.08-.51-6.12-1.28-9.18-1.94-2.44-.53-3.42-2-2.65-4.39,1.16-3.58,2.31-7.18,3.77-10.64a3.53,3.53,0,0,1,2.91-1.4A81.19,81.19,0,0,1,434,80.74a3.17,3.17,0,0,1,2,2.12,41.33,41.33,0,0,1,.1,6Z"/><path class="cls-6" d="M405.76,114.67a9.87,9.87,0,0,1,2.08-1.19,4,4,0,0,0,3.16-3.72c.57-3.69,1.23-3.75,4.89-2.92,5.31,1.21,10.69,2.17,16.08,3,2.13.32,3.68.33,3,3.28-.31,1.39.48,3,.77,4.57-2.35,3.74-6.09,3.11-9.58,2.88a57.42,57.42,0,0,1-8.76-1.26,54.89,54.89,0,0,1-7.42-2.51C408.53,116.21,407.17,115.38,405.76,114.67Z"/><path class="cls-7" d="M405.76,114.67c1.41.71,2.77,1.54,4.23,2.11a54.89,54.89,0,0,0,7.42,2.51,57.42,57.42,0,0,0,8.76,1.26c3.49.23,7.23.86,9.58-2.88l.26.17c6.62,3.8,6.62,3.8,2.45,10.39-2.07.23-4.22,1-6.19.61-9.94-1.73-19.83-3.76-29.75-5.65-2.1-.4-2.95-1.43-2-3.52l.35-.33a.68.68,0,0,0,.36-.31l1.4-.87c1.6,1.4,3,3.43,4.85,4.09a73.87,73.87,0,0,0,28,4c2.39-.1,3.57-1.34,3.51-3.4-4.08.39-8,.91-11.86,1.07a19.23,19.23,0,0,1-5.49-.86c-4.55-1.15-9.12-2.23-13.54-3.77-1.32-.46-2.16-2.3-3.22-3.52Z"/><path class="cls-6" d="M476.07,41c0,2.8-.12,5.38,0,7.95.36,6.56.41,6.52-6.26,5.8-1.89-.2-3.81,0-5.7-.25-3.26-.38-3.9-2-2.4-4.93A18.88,18.88,0,0,0,463,45c.79-3.59,1.53-4.15,5.07-3.68a24.17,24.17,0,0,0,3.77.42A30.16,30.16,0,0,0,476.07,41Z"/><path class="cls-6" d="M436.77,60.55c0,1.38,0,2.75,0,4.13,0,3.8-.57,4.25-4.24,3.7-7-1.06-7.1-1.08-5.12-7.9a40.7,40.7,0,0,1,2.86-7.66c.52-1,2.54-2.08,3.42-1.78a5.48,5.48,0,0,1,3.13,3.25c.53,2,.14,4.17.14,6.27Z"/><path class="cls-6" d="M404.86,115.79c1.06,1.22,1.9,3.06,3.22,3.52,4.42,1.54,9,2.62,13.54,3.77a19.23,19.23,0,0,0,5.49.86c3.9-.16,7.78-.68,11.86-1.07.06,2.06-1.12,3.3-3.51,3.4a73.87,73.87,0,0,1-28-4c-1.87-.66-3.25-2.69-4.85-4.09Z"/><path class="cls-6" d="M475.19,32.42c-8.4-.14-8.44-.15-6.41-8,.35-1.34.88-3.09,1.9-3.71,2.49-1.52,4.78,0,4.86,3,.06,2.43,0,4.87-.05,7.3A7.83,7.83,0,0,1,475.19,32.42Z"/><path class="cls-6" d="M400.51,119.67c-.94,2.09-.09,3.12,2,3.52,9.92,1.89,19.81,3.92,29.75,5.65,2,.35,4.12-.38,6.19-.61.1,2-1.06,2.69-2.8,2.49-2.51-.28-5-.67-7.5-1.12q-12.45-2.31-24.89-4.72a6.64,6.64,0,0,1-3.2-1.25C398.73,122.34,397.66,120.68,400.51,119.67Z"/><path class="cls-7" d="M478,71.67c-.27.82-.46,2.31-.82,2.35-5.19.65-10.42,2.08-15.58-.18-.15-.06-.21-.34-.56-.94a9.62,9.62,0,0,1,2.22-.58c2.86,0,5.73.17,8.57,0a24.85,24.85,0,0,0,4.76-1.22Z"/><path class="cls-7" d="M451.41,72.64c2.59,1,5.12,2.5,7.79,2.82,6.22.76,12.52,1,18.93,2-2,.19-4.05.72-6,.51-5.34-.58-10.66-1.41-16-2.28-2.44-.4-4.83-1.11-7.24-1.68l.42-.39,1-.66Z"/><path class="cls-6" d="M450.29,72.92l-1,.66C449.65,73.35,450,73.14,450.29,72.92Z"/><path class="cls-5" d="M376.23,252.46l.74.62c-.22.16-.45.44-.66.43s-.48-.29-.72-.45Z"/><path class="cls-6" d="M401.22,119a.68.68,0,0,1-.36.31A.3.3,0,0,1,401.22,119Z"/><path class="cls-4" d="M110.34,453.45l-.07-.13.06.08Z"/></g></g></svg>